<?xml version="1.0" standalone="no"?>
<!DOCTYPE svg PUBLIC "-//W3C//DTD SVG 20010904//EN"
 "http://www.w3.org/TR/2001/REC-SVG-20010904/DTD/svg10.dtd">
<svg version="1.0" xmlns="http://www.w3.org/2000/svg"
 width="633.000000pt" height="140.000000pt" viewBox="0 0 633.000000 140.000000"
 preserveAspectRatio="xMidYMid meet">

<desc>Randomflix</desc>

<g transform="translate(0.000000,140.000000) scale(0.100000,-0.100000)"
fill="#000000" stroke="none">
<defs>
          <linearGradient id="MyGradient" x2="0" y2="1">
            <stop offset="0%" stop-color="#FF6F91" />
            <stop offset="100%" stop-color="#f64f59" />
          </linearGradient>
        </defs>
<path fill="url(#MyGradient)" d="M2873 1286 c-62 -20 -98 -51 -127 -108 l-26 -52 0 -310 c0 -186 4
-326 11 -349 13 -47 60 -102 113 -130 34 -18 57 -22 141 -22 93 0 104 2 155
31 45 26 60 42 85 89 l30 59 0 310 c0 349 -5 377 -71 435 -63 56 -211 78 -311
47z m167 -136 c33 -18 40 -76 40 -340 0 -146 -5 -271 -10 -292 -13 -44 -34
-58 -87 -58 -82 0 -83 7 -83 355 l0 296 25 24 c26 27 80 34 115 15z"/>
<path fill="url(#MyGradient)" d="M100 709 l0 -581 22 5 c13 3 53 9 91 12 l67 7 0 239 0 239 60 0 c46
0 64 -4 80 -20 27 -27 29 -40 33 -238 2 -108 7 -176 14 -183 8 -8 39 -9 98 -4
83 7 87 8 80 28 -3 12 -10 110 -13 217 -8 215 -16 244 -78 285 l-29 19 40 41
c52 51 65 97 65 226 0 127 -11 169 -57 220 -52 58 -101 69 -305 69 l-168 0 0
-581z m325 396 c24 -23 25 -31 25 -134 0 -100 -2 -112 -22 -136 -22 -25 -76
-44 -125 -45 -23 0 -23 0 -23 170 l0 170 60 0 c51 0 65 -4 85 -25z"/>
<path fill="url(#MyGradient)" d="M875 1278 c-3 -11 -148 -892 -171 -1041 l-6 -39 78 7 c44 4 82 9 85
11 4 2 12 47 19 100 7 52 18 97 24 99 6 2 54 6 107 9 l96 6 14 -92 14 -93 90
3 c50 2 91 5 92 6 2 2 -160 947 -173 1009 l-6 27 -129 0 c-95 0 -131 -3 -134
-12z m167 -449 c21 -133 35 -245 32 -250 -3 -5 -39 -9 -81 -9 l-75 0 5 33 c3
17 21 130 38 250 18 119 35 217 39 217 3 0 22 -108 42 -241z"/>
<path fill="url(#MyGradient)" d="M1390 775 l0 -515 39 0 c21 0 59 3 84 6 l47 7 2 356 3 356 105 -354
104 -353 44 6 c25 3 67 6 93 6 l49 0 0 500 0 500 -80 0 -80 0 -2 -292 -3 -293
-63 210 c-34 116 -73 247 -87 293 l-26 82 -114 0 -115 0 0 -515z"/>
<path fill="url(#MyGradient)" d="M2080 794 l0 -497 176 7 c237 10 289 30 338 128 l26 52 0 318 c0 351
-2 363 -63 426 -49 51 -104 62 -304 62 l-173 0 0 -496z m340 336 c19 -19 20
-33 20 -321 0 -177 -4 -308 -10 -319 -13 -24 -62 -40 -121 -40 l-49 0 0 350 0
350 70 0 c57 0 74 -4 90 -20z"/>
<path fill="url(#MyGradient)" d="M3360 805 l0 -485 80 0 80 0 2 337 3 338 60 -328 c33 -180 63 -333
66 -339 4 -6 43 -13 87 -16 l81 -4 5 33 c4 19 29 169 56 334 28 165 52 305 54
310 3 6 5 -144 5 -332 l1 -343 39 0 c21 0 59 -3 85 -6 l46 -7 0 497 0 496
-124 0 c-90 0 -125 -3 -129 -12 -2 -7 -28 -154 -57 -325 -30 -172 -56 -313
-59 -313 -4 0 -33 145 -66 323 l-60 322 -127 3 -128 3 0 -486z"/>
<path fill="url(#MyGradient)" d="M4230 796 l0 -493 46 -7 c26 -3 66 -6 90 -6 l44 0 0 211 0 211 115
-7 115 -7 0 76 0 76 -115 0 -115 0 0 150 0 150 145 0 145 0 0 70 0 70 -235 0
-235 0 0 -494z"/>
<path fill="url(#MyGradient)" d="M4780 781 l0 -509 48 -6 c26 -3 121 -10 212 -16 91 -6 175 -13 188
-16 21 -4 22 -2 22 75 l0 79 -67 6 c-38 3 -103 8 -145 12 l-78 6 0 439 0 439
-90 0 -90 0 0 -509z"/>
<path fill="url(#MyGradient)" d="M5320 760 l0 -529 33 -5 c17 -3 58 -7 90 -11 l57 -5 0 540 0 540 -90
0 -90 0 0 -530z"/>
<path fill="url(#MyGradient)" d="M5620 1238 c102 -291 160 -463 160 -475 0 -8 -43 -136 -95 -285 -53
-149 -94 -272 -92 -274 1 -2 39 -6 84 -10 l80 -7 68 204 c37 112 70 207 74
211 4 4 38 -95 75 -220 l69 -229 91 -10 c50 -6 93 -9 94 -8 2 2 -38 133 -88
292 -51 158 -95 297 -97 308 -2 11 37 140 86 288 l89 267 -83 0 -83 0 -62
-187 c-35 -104 -66 -191 -69 -196 -4 -4 -35 80 -70 188 l-62 195 -94 0 -94 0
19 -52z"/>
</g>
</svg>
